<svg xmlns="http://www.w3.org/2000/svg" width="1600" height="900" viewBox="0 0 1600 900">
  <defs>
    <style>
      .a {
        fill: none;
      }

      .b {
        fill: #b2b9c0;
      }

      .c {
        fill: #007bc0;
      }

      .d {
        fill: #003253;
      }

      .e {
        fill: #006ead;
      }

      .f {
        fill: #383b3e;
      }

      .g {
        fill: #fff;
      }

      .h {
        fill: #1a1c1d;
      }

      .i {
        fill: #00629a;
      }

      .j {
        fill: #232628;
      }

      .k {
        fill: #2e3033;
      }

      .l {
        fill: #a4abb3;
      }

      .m {
        fill: #7ebdff;
      }

      .n {
        fill: #9dc9ff;
      }

      .o {
        fill: #979ea4;
      }

      .p {
        fill: #7d8389;
      }

      .q {
        fill: #8a9097;
      }

      .r {
        fill: #eff1f2;
      }

      .s {
        fill: #e0e2e5;
      }

      .t {
        fill: #43464a;
      }

      .u {
        fill: #002742;
      }

      .v {
        fill: #001d33;
      }

      .w {
        fill: #004975;
      }

      .x {
        fill: #0096e8;
      }
    </style>
  </defs>
  <g>
    <path class="a" d="M1272.824,764.705h-2.842c.519,4.531.946,9.065,1.294,13.661l4.392-5.371s.027-4.117.077-11.119l-2.92-.263C1272.831,762.738,1272.831,763.771,1272.824,764.705Z"/>
    <path class="a" d="M1145.124,438.276l17.691-10.991a42.375,42.375,0,0,1,7.939-7.51c0,.083.005.164.005.247.342-3.446.707-6.86,1.067-10.11a64.216,64.216,0,0,1-15.3-2.74s-4.371-9.37-9.637-28.915a154.416,154.416,0,0,1-4.63-28.473,25.7,25.7,0,0,1-1.718-2.23v93.383l4.58-2.661Z"/>
    <path class="a" d="M1270.215,623.572c-1.065-3.679-2.3-7.99-3.648-12.791.609,11.908,1.849,36.523,3.066,62.961C1269.807,655.986,1270.005,638.271,1270.215,623.572Z"/>
    <path class="b" d="M1097.778,504.458a61.028,61.028,0,0,1-.054-9.335c1.339-19.085,10.977-34.75,27.324-45.1V219.273H576.567V514.551l15.487,9.734c16.369-3.239,34.143-6.725,51-10.018L607.815,345.119l54.578-11.371L646.986,312.06l6.551,3-.631-6.682,6.1,2.795-.631-6.683,6.1,2.8-.63-6.682,6.1,2.8-.677-7.174,22.332,31.436,66.864-13.931,12.272,58.9h0l5.087,24.415V320.225h70.906l6.39-37.357,2.5,6.759,4.288-5.164,2.328,6.295,4.289-5.163,2.328,6.295,4.288-5.164,2.328,6.3,4.6-5.543-5.6,32.746h55.247v66.016l14.4-84.18,64.871,11.1,17.7-41.805.884,7.151,5.357-4.044.824,6.661,5.357-4.044.824,6.661,5.357-4.044.825,6.662,5.75-4.342L1036.682,317.9l59.131,10.115-16.535,96.654h0l-20.731,121.185L929.723,523.811v17.418H775.831v-5.366L652.892,561.477l-.073-.351c-28.125,9.375-54.541,15.07-76.252,12.46v23.5h515.585l5.7-66.987ZM653.913,278.946l-18.622,18.623H608.954l-18.622-18.623V252.61l18.622-18.623h26.337l18.622,18.623Zm97.761,266.278h0l0,0Z"/>
    <rect class="c" x="635.205" y="412.029" width="59.335" height="9.257" transform="translate(-71.007 144.369) rotate(-11.769)"/>
    <rect class="c" x="638.035" y="424.982" width="71.575" height="9.257" transform="translate(-73.461 146.468) rotate(-11.769)"/>
    <rect class="c" x="641.162" y="440.996" width="52.048" height="9.257" transform="translate(-76.867 145.452) rotate(-11.769)"/>
    <rect class="c" x="649.699" y="481.946" width="82.003" height="6.222" transform="translate(-84.415 151.077) rotate(-11.769)"/>
    <rect class="c" x="652.567" y="496.378" width="69.107" height="6.222" transform="translate(-87.434 150.649) rotate(-11.769)"/>
    <rect class="d" x="958.8" y="396.407" width="9.257" height="59.335" transform="translate(381.001 1303.864) rotate(-80.292)"/>
    <rect class="d" x="962.386" y="405.618" width="9.257" height="71.575" transform="translate(368.87 1320.143) rotate(-80.292)"/>
    <polygon class="d" points="979.847 462.828 981.408 453.704 930.105 444.927 929.723 447.157 929.723 454.253 979.847 462.828"/>
    <path class="e" d="M787.309,383.277,818.9,417.2c0-3.483,13.947-6.307,31.151-6.307s31.151,2.824,31.151,6.307l31.419-33.956c-9.753,5.083-34.132,8.687-62.686,8.687C821.44,391.935,797.1,388.344,787.309,383.277Z"/>
    <g>
      <polygon class="f" points="813.549 470.239 813.549 465.61 790.115 465.61 783.645 465.61 783.645 470.239 791.08 470.239 813.549 470.239"/>
      <polygon class="f" points="783.645 473.147 783.645 477.776 792.65 477.776 820.301 477.776 820.301 473.147 791.686 473.147 783.645 473.147"/>
      <polygon class="f" points="783.645 480.684 783.645 485.312 794.22 485.312 815.999 485.312 815.999 480.684 793.256 480.684 783.645 480.684"/>
      <rect class="f" x="894.624" y="420.876" width="24.469" height="4.628"/>
      <rect class="f" x="889.099" y="428.413" width="29.994" height="4.628"/>
      <rect class="f" x="892.619" y="435.95" width="26.474" height="4.628"/>
    </g>
    <g>
      <path class="g" d="M929.723,399.08v48.077l.382-2.23,51.3,8.777-1.561,9.124-50.124-8.575v69.558l128.824,22.038,20.731-121.185Zm5.243,17.431,58.486,10-1.561,9.124-58.486-10ZM1001.509,452l-70.55-12.069,1.561-9.124,70.55,12.069Z"/>
      <polygon class="g" points="1029.397 394.959 1031.901 380.323 1026.031 379.319 1026.031 379.319 1020.001 378.288 949.607 366.245 949.607 366.246 943.737 365.241 941.233 379.877 947.103 380.881 1029.397 394.959"/>
      <polygon class="g" points="1042.846 350.343 1042.846 350.343 1048.717 351.347 1051.221 336.712 1045.35 335.707 957.405 320.663 957.405 320.663 951.535 319.659 949.031 334.294 954.901 335.299 1042.846 350.343"/>
      <polygon class="g" points="950.978 358.234 1036.393 372.846 1064.146 377.594 1066.65 362.958 1060.779 361.954 947.611 342.594 945.107 357.23 950.978 358.234 950.978 358.234"/>
      <polygon class="g" points="1011.182 317.118 1012.006 323.78 1017.363 319.735 1018.187 326.397 1023.544 322.352 1024.368 329.014 1029.725 324.97 1030.575 331.842 1030.746 331.914 1036.682 317.895 1051.874 282.014 1046.124 286.356 1045.299 279.694 1039.942 283.738 1039.118 277.077 1033.761 281.121 1032.937 274.46 1027.58 278.504 1026.696 271.353 1008.995 313.158 1005.568 321.253 1005.656 321.291 1011.182 317.118"/>
      <polygon class="g" points="669.276 296.225 669.953 303.399 663.851 300.604 664.481 307.286 658.378 304.491 659.009 311.174 652.906 308.379 653.537 315.061 646.986 312.06 662.393 333.748 678.369 356.236 678.446 356.181 677.796 349.287 683.899 352.083 683.268 345.4 689.371 348.195 688.74 341.513 694.843 344.308 694.212 337.625 700.508 340.509 700.659 340.401 691.608 327.661 669.276 296.225"/>
      <path class="g" d="M649.913,254.266l-16.279-16.279H610.611l-16.279,16.279v23.023l16.279,16.28h23.023l16.279-16.28ZM603.26,272.654c-2.7,0-4.357-.955-5.365-3.079l2.484-1.063a2.728,2.728,0,0,0,2.846,1.872c1.44,0,2.3-.594,2.3-1.584,0-.864-.468-1.206-2.341-1.639a9.868,9.868,0,0,1-3.258-1.062,3,3,0,0,1-1.459-2.755c0-2.448,1.729-3.942,4.754-3.942a5.624,5.624,0,0,1,4.789,2.3l-2.341,1.3a2.761,2.761,0,0,0-2.43-1.332c-1.351,0-2.017.5-2.017,1.386,0,.811.558,1.188,2.232,1.513a10.442,10.442,0,0,1,3.386,1.1,3.245,3.245,0,0,1,1.494,2.953C608.338,271.213,606.52,272.654,603.26,272.654Zm16.561-10.75h-3.636v10.551H613.3V261.9h-3.637v-2.323h10.154Zm7.217,10.75c-3.673,0-6.212-2.7-6.212-6.609,0-3.888,2.629-6.662,6.32-6.662,3.6,0,6.176,2.755,6.176,6.59C633.322,269.916,630.748,272.654,627.038,272.654Zm14.508-4.916h-2.719v4.717h-2.881V259.581h5.474c2.917,0,4.627,1.549,4.627,4.177C646.047,266.261,644.373,267.738,641.546,267.738Z"/>
      <path class="g" d="M627.02,261.706c-1.98,0-3.187,1.638-3.187,4.3,0,2.7,1.225,4.321,3.259,4.321s3.223-1.584,3.223-4.285C630.315,263.309,629.091,261.706,627.02,261.706Z"/>
      <path class="g" d="M641.258,261.868h-2.431V265.6h2.413a1.75,1.75,0,0,0,2-1.891C643.238,262.48,642.572,261.868,641.258,261.868Z"/>
    </g>
    <path class="h" d="M1220.762,321.5s0-7.767-12.206-17.756-25.523-3.328-36.618-4.435c-10.643-1.065-22.6-4.151-31.394-.485-.374.155-.751.3-1.113.485-8.386,4.19-.933,16.3-1.015,24.181-2.009,5.461-4,15.153,2.128,24.061a25.7,25.7,0,0,0,1.718,2.23c-.422-5.908-.379-9.685-.379-9.685.018-.114.042-.22.061-.333,2.268-2.693,6.809-7.781,10.02-9.385,4.439-2.221,6.657,1.107,18.867,4.439s24.408-5.55,24.408-5.55c-6.656,18.863,3.782,22.474,7.111,28.021a10.052,10.052,0,0,1,1.355,4.776c3.868-6.534,10.131-14.513,15.284-8.877,6.266,6.855-4.561,24.371-10.088,32.345l2.518,5.469s21.2-37.611,22.656-50.638C1235.211,330.2,1220.762,321.5,1220.762,321.5Z"/>
    <path class="i" d="M1251.173,855.07l12.991-38.153,1.849-7.059-17.944,11.22-4.918-8.322,28.125-34.39c-.348-4.6-.775-9.13-1.294-13.661H1219.8l-5.038-54.262-.245-2.634h-68.5c.944,15.563,3.744,41.884,12.058,62.154,9.5,23.151,20.914,65.34,31.273,108,1.791,7.379,3.551,14.773,5.264,22.085l76.167-.052c.414-15.1.811-28.588,1.125-40.855C1264.667,860.44,1256.453,859.324,1251.173,855.07Z"/>
    <path class="i" d="M463.936,663.2l-29.154-.026-.255,46.157H374.24c4.3,28.339,6.592,52.817,6.592,52.817l-5.817,1.587,1.211,3.143,35.208,30.215-2.75,8.5-21.567-10.462L389.8,802.1l17.626,30.515c-36.462,18.5-54.171-25.055-54.171-25.055l-2.147-29.45s-.709-2.682-1.934-7.323l-.991.27-9.5,2.593c1,29.5,5.01,64.826,6.267,112.647.125,4.762.145,9.336.033,13.709l60.522.01c5.321-22.475,11.232-46.63,17.253-69.729,9.781-37.53,19.85-72.273,28.143-92.494C461.71,711.435,463.6,675.3,463.936,663.2Z"/>
    <polygon class="j" points="751.674 545.224 751.677 545.22 751.673 545.223 751.674 545.224"/>
    <path class="k" d="M431.973,411.676a78.646,78.646,0,0,0,15.992,13.086h0c-.2-2.079-.419-4.163-.639-6.221-.2-1.868-.4-3.712-.6-5.511A46.592,46.592,0,0,1,431.973,411.676Z"/>
    <path class="l" d="M476.426,338.336l-.165-.1c-3.687-.4-8.107.45-13.1,2.176a124.324,124.324,0,0,0-15.356,6.809c-5.668,2.892-11.723,6.253-18.033,9.755l-.009,0,13.561,4.526c9.029,4.96,22.023,7.515,30.981,6.113a18.816,18.816,0,0,0,5.538-1.658c8.177-4.129,20.007-6.328,32.155-5.7Z"/>
    <g>
      <path class="c" d="M849.939,364.708c-37.138,0-67.244,6.095-67.244,13.614,0,1.748,1.647,3.419,4.614,4.955,9.791,5.067,34.131,8.658,62.63,8.658,28.554,0,52.933-3.6,62.686-8.687,2.933-1.528,4.559-3.188,4.559-4.926C917.184,370.8,887.077,364.708,849.939,364.708Z"/>
      <path class="c" d="M850.055,410.9c-17.2,0-31.151,2.824-31.151,6.307l.085.442c1.094,3.192,13.915,5.73,29.806,5.858.418,0,.837.006,1.26.006s.842,0,1.261-.006c15.891-.128,28.712-2.666,29.8-5.858l.085-.442C881.206,413.721,867.259,410.9,850.055,410.9Z"/>
      <path class="c" d="M608.954,233.987,590.332,252.61v26.336l18.622,18.623h26.337l18.622-18.623V252.61l-18.622-18.623Zm40.959,43.3-16.279,16.28H610.611l-16.279-16.28V254.266l16.279-16.279h23.023l16.279,16.279Z"/>
      <path class="c" d="M606.844,265.667a10.442,10.442,0,0,0-3.386-1.1c-1.674-.325-2.232-.7-2.232-1.513,0-.882.666-1.386,2.017-1.386a2.761,2.761,0,0,1,2.43,1.332l2.341-1.3a5.624,5.624,0,0,0-4.789-2.3c-3.025,0-4.754,1.494-4.754,3.942a3,3,0,0,0,1.459,2.755,9.868,9.868,0,0,0,3.258,1.062c1.873.433,2.341.775,2.341,1.639,0,.99-.864,1.584-2.3,1.584a2.728,2.728,0,0,1-2.846-1.872l-2.484,1.063c1.008,2.124,2.665,3.079,5.365,3.079,3.26,0,5.078-1.441,5.078-4.034A3.245,3.245,0,0,0,606.844,265.667Z"/>
      <polygon class="c" points="609.667 261.904 613.304 261.904 613.304 272.455 616.185 272.455 616.185 261.904 619.821 261.904 619.821 259.581 609.667 259.581 609.667 261.904"/>
      <path class="c" d="M627.146,259.383c-3.691,0-6.32,2.774-6.32,6.662,0,3.907,2.539,6.609,6.212,6.609,3.71,0,6.284-2.738,6.284-6.681C633.322,262.138,630.748,259.383,627.146,259.383Zm-.054,10.947c-2.034,0-3.259-1.62-3.259-4.321,0-2.665,1.207-4.3,3.187-4.3,2.071,0,3.3,1.6,3.3,4.339C630.315,268.746,629.127,270.33,627.092,270.33Z"/>
      <path class="c" d="M638.827,267.738h2.719c2.827,0,4.5-1.477,4.5-3.98,0-2.628-1.71-4.177-4.627-4.177h-5.474v12.874h2.881Zm0-5.87h2.431c1.314,0,1.98.612,1.98,1.836a1.75,1.75,0,0,1-2,1.891h-2.413Z"/>
      <path class="c" d="M415.949,358.084a82.555,82.555,0,0,0,13.823-1.11c6.31-3.5,12.365-6.863,18.033-9.755a124.324,124.324,0,0,1,15.356-6.809c4.993-1.726,9.413-2.58,13.1-2.176l.165.1.17-.083c-4.488-26.23-28.256-44.049-53.089-39.8s-41.327,28.955-36.84,55.185c.116.033.226.059.341.091,4.3,1.2,8.378,2.125,12.274,2.809A102.461,102.461,0,0,0,410.3,357.88C412.228,358.006,414.115,358.079,415.949,358.084Z"/>
      <path class="c" d="M478.679,453.027l-1.185-.486-10.976-4.5.721,1.649,19.373,44.279h-86.06c14.124,49.375,34.519,116.78,34.519,116.78L434.8,659.8l-.019,3.367,29.154.026,30.76.028,2.952,0h.47s8.721-41.32,17.427-79.939c1.269-5.629,2.538-11.2,3.779-16.579a116.239,116.239,0,0,0,2.68-16.3c1.454-17.277-2.949-28.093-10.939-38.542C487.786,476.227,478.679,453.027,478.679,453.027Z"/>
      <path class="c" d="M432.821,440.6c.656.2,1.191.348,1.635.462Z"/>
      <path class="c" d="M1236.535,434.07l-5.585-3.266,1.09.667-17.617,57.667h-69.682l.383-50.862-4.58,2.661-1.906,1.108-1.628,172.673-.03,3.213-.235,1.6-7.449,50.818-4.677,31.912-.583,3.978-.23,1.566h90.711l-.515-5.544-7.6-81.81c5.018-107.057,30.037-186.13,30.084-186.277Z"/>
      <polygon class="c" points="1126.34 449.194 1138.638 442.045 1138.638 442.045 1126.34 449.194"/>
    </g>
    <g>
      <path class="m" d="M1171.826,409.912c-.36,3.25-.725,6.664-1.067,10.11,0,.225.007.45.022.671l.744-.295a78.32,78.32,0,0,0,14.844-11.786A46.723,46.723,0,0,1,1171.826,409.912Z"/>
      <path class="m" d="M471.683,381.337c-5.273,19.564-9.651,28.95-9.651,28.95a64.289,64.289,0,0,1-15.308,2.742c.2,1.8.4,3.643.6,5.511,16.4.231,34.569-3.8,34.569-3.8-2.757-4.136-7.431-22.255-10.17-33.561Z"/>
      <path class="m" d="M410.205,387.334c-2.561-3.1-17.9-22.359-10.923-30.8-3.9-.684-7.975-1.6-12.274-2.809l-2.193,8.939A192.507,192.507,0,0,0,383.5,385.1c0,19.453-2.98,31.129-2.98,31.129s5.961,1.492,20.365,0c.736-.076,1.481-.15,2.227-.222,8.017-.77,16.166-1.267,16.166-1.267a56.114,56.114,0,0,1-8.952-25.279C410.271,388.758,410.231,388.049,410.205,387.334Z"/>
      <path class="m" d="M415.949,358.084c-1.834,0-3.721-.078-5.65-.2a37.8,37.8,0,0,1,4.521,6.388C415.3,362.167,415.669,360.089,415.949,358.084Z"/>
      <path class="m" d="M1054.03,739.238l-1.746,4.481-40.583,37.1,2.854,8.875,20.413-9.235L1011.7,817.37l10.261,3.182a23.844,23.844,0,0,0,20.159-2.858c6.987-4.592,15.509-10.595,17.323-13.664,13.142-22.223,15.859-49.827,15.859-49.827l2.494-3.873-2.241-1.021C1067.73,745.728,1059.659,741.918,1054.03,739.238Z"/>
      <path class="m" d="M1272.564,818.271l-8.4-1.354-12.991,38.153c5.28,4.254,13.494,5.37,20.73,4.075,4.667-.836,8.93-2.666,11.723-5.336,6.286-6.008,22.177-30.184,22.177-30.184Z"/>
    </g>
    <g>
      <path class="n" d="M1218.989,353.19c-5.153-5.636-11.416,2.343-15.284,8.877a10.052,10.052,0,0,0-1.355-4.776c-3.329-5.547-13.767-9.158-7.111-28.021,0,0-12.206,8.878-24.408,5.55s-14.428-6.66-18.867-4.439c-3.211,1.6-7.752,6.692-10.02,9.385-.019.113-.043.219-.061.333,0,0-.043,3.777.379,9.685a154.416,154.416,0,0,0,4.63,28.473c5.266,19.545,9.637,28.915,9.637,28.915a64.216,64.216,0,0,0,15.3,2.74,46.723,46.723,0,0,0,14.543-1.3,78.32,78.32,0,0,1-14.844,11.786l-.744.295a12.148,12.148,0,0,0,.419,2.432c1.119,4.036,4.131,7.271,6.519,9.306l3.249,2.391,0,0h0c-.363-.543,12.923-1.615,23.132-8.423,1.773-1.182,3.281-2.275,4.566-3.278,5.341-4.172,6.79-6.784,7.17-7.739L1211.419,391l-2.518-5.469C1214.428,377.561,1225.255,360.045,1218.989,353.19Z"/>
      <path class="n" d="M1302.723,774.668c.871-3.243,1.816-6.657,2.8-10.186l-.4-.026c-2.18-.145-19.506-1.694-29.378-2.58-.05,7-.077,11.119-.077,11.119l-4.392,5.371-28.125,34.39,4.918,8.322,17.944-11.22-1.849,7.059,8.4,1.354,33.239,5.354C1309.539,811,1302.048,777.194,1302.723,774.668Z"/>
    </g>
    <g>
      <path class="o" d="M1030.746,331.914l-.171-.072-.85-6.872-5.357,4.044-.824-6.662-5.357,4.045-.824-6.662-5.357,4.045-.824-6.662-5.526,4.173-.088-.038,3.427-8.095-64.871-11.1-14.4,84.18h0V399.08l149.555,25.584,16.535-96.654L1036.682,317.9Zm-1.349,63.045L947.1,380.881l-5.87-1,2.5-14.636,5.87,1h0l82.294,14.078Zm37.253-32-2.5,14.636-27.753-4.748L945.107,357.23l2.5-14.636,113.168,19.36Zm-15.429-26.246-2.5,14.635L954.9,335.3l-5.87-1,2.5-14.635,93.815,16.048Z"/>
      <path class="o" d="M1236.535,434.07v0l-.044.1c-1.27,4.072-25.151,81.874-30.039,186.173l7.6,81.81.515,5.544.244,2.634,5.038,54.262h35.688l-1.659-56.9v0l-.161-5.542-4.668-159.975c-1.183-5.226-2.313-10.43-3.366-15.549-.043-.1-.084-.195-.125-.294q-.916-4.464-1.749-8.824c-.012-.17-.025-.335-.036-.512V517c-.276-1.458-.547-2.909-.807-4.343a69.23,69.23,0,0,1-.944-9.271c-.725-17.629,3.289-44.692,21.1-53.382.174.019.344.046.516.067.041.006.081.013.122.018Z"/>
    </g>
    <g>
      <polygon class="p" points="691.608 327.661 700.659 340.401 700.508 340.509 694.212 337.625 694.843 344.308 688.74 341.513 689.371 348.195 683.268 345.4 683.899 352.083 677.796 349.287 678.446 356.181 678.369 356.236 662.393 333.748 607.815 345.119 620.087 404.023 770.744 372.634 770.744 372.634 758.472 313.73 691.608 327.661"/>
      <path class="p" d="M1098.06,597.083l-.2-66.987-5.7,66.987-.614,7.2c-1.01,2.8-2.264,6.342-3.7,10.434-13.055,37.272-41.255,120.955-41.255,120.955s1.975.954,5.159,2.475c.7.337,1.469.7,2.285,1.09,5.629,2.68,13.7,6.49,21.526,10.071l2.241,1.021c5.976,2.716,11.65,5.216,15.788,6.876l1.122-33.137,1.924-56.809,1.387-40.95.049-1.429.071-2.114-.024-8.049Z"/>
      <path class="p" d="M1272.825,761.613l-3.249-.292-.659-.059s.011-1.681.032-4.7c.086-12.445.34-47.709.684-82.816-1.217-26.438-2.457-51.053-3.066-62.961q-.4-1.436-.821-2.929l-.007-.027c-4.833-17.307-10.934-40.192-16.15-62.946q-.3-1.295-.59-2.589l4.667,159.975.162,5.541v0l1.66,56.9h17.336C1272.831,763.771,1272.831,762.738,1272.825,761.613Z"/>
    </g>
    <g>
      <path class="q" d="M1295.722,485.912c-4.172-21.371-14.733-33.547-31.748-35.8-.073-.009-.144-.022-.217-.031-.041,0-.081-.012-.122-.018-.172-.021-.342-.048-.516-.067-17.815,8.69-21.873,35.857-21.148,53.486a69.411,69.411,0,0,0,.943,9.271c.26,1.434.531,2.885.808,4.343q.9,4.749,1.91,9.641c1.054,5.119,2.184,10.323,3.367,15.549q.292,1.295.59,2.589c5.216,22.754,11.317,45.639,16.15,62.946l.007.027q.417,1.492.821,2.929c1.349,4.8,2.583,9.112,3.648,12.791-.21,14.7-.408,32.414-.582,50.17-.344,35.107-.6,70.371-.684,82.816-.021,3.023-.032,4.7-.032,4.7l.659.059,3.249.292,2.92.263c9.872.886,27.2,2.435,29.378,2.58l.4.026c9.265.612,16.68.819,16.792-.074,5.748-45.994,10.851-150.354,10.851-150.354Z"/>
      <path class="q" d="M1125.048,450.02c-16.347,10.353-25.985,26.018-27.324,45.1a61.028,61.028,0,0,0,.054,9.335l.078,25.638.2,66.987.054,17.635.024,8.049-.071,2.114-.049,1.429-1.387,40.95-1.924,56.809-1.122,33.137-.135,3.981h22.493l.006.016.023.054,7.834-53.448.23-1.566.583-3.978,4.677-31.912,7.449-50.818.235-1.6.03-3.213,1.628-172.673-12.3,7.149C1125.9,449.46,1125.481,449.746,1125.048,450.02Z"/>
    </g>
    <g>
      <path class="r" d="M723.73,533.238c-23.68,10.062-47.867,20.206-70.911,27.888l.073.351,122.939-25.614V520.405c-9.851,5.985-41.734,10.23-52.384,11.51Z"/>
      <path class="r" d="M620.087,404.023l-12.272-58.9,35.241,169.148c39.257-7.667,73.546-14.284,73.546-14.284l.686,3.2.5,2.352c10.559-2.225,29.762-13.049,35.572-11.221l22.467-1.488v-95.78l-5.087-24.415Zm14.8,14.154,58.088-12.1,1.888,9.062-58.087,12.1Zm2.959,14.2,70.071-14.6,1.888,9.062-70.071,14.6Zm4.81,23.084-1.888-9.062,50.954-10.616,1.888,9.062Zm11.275,54.119-1.269-6.091L720.314,489.4l1.269,6.091ZM651.2,496.466l-1.269-6.091,80.279-16.726,1.269,6.091Z"/>
      <polygon class="r" points="873.147 286.726 868.859 291.89 866.531 285.595 862.242 290.758 859.914 284.463 855.626 289.627 853.127 282.868 846.737 320.225 843.99 336.281 844.084 336.297 848.508 330.97 850.836 337.265 855.124 332.102 857.452 338.397 861.74 333.233 864.068 339.529 868.357 334.365 870.758 340.86 870.941 340.891 874.476 320.225 880.078 287.479 875.475 293.022 873.147 286.726"/>
      <path class="r" d="M1230.95,430.8l-2.244-1.372s-.579.63-1.557,1.7c-1.551,1.7-4.117,4.509-7.046,7.746-3.15,3.482-6.711,7.445-9.865,11.02-2.307,2.616-4.4,5.024-5.943,6.878,0,0-3.83-2.895-8.508-6.878-5.177-4.408-11.386-10.144-14.6-14.764-.072-.1-.149-.208-.217-.309h0l-.287.353-11.958,14.72-5.587,6.878s-3.836-11.512-4.1-19.713c-.009-.292-.015-.582-.015-.865,0-3.126,1.693-6.246,3.791-8.914l-17.691,10.991-.383,50.862h69.682l17.617-57.667Z"/>
      <path class="r" d="M1177.719,432.431a25.857,25.857,0,0,0,3.249,2.391Z"/>
      <polygon class="r" points="436.306 441.587 436.304 441.587 436.304 441.588 436.305 441.587 436.306 441.587"/>
      <path class="r" d="M466.518,448.04l-6.65-4.393-1.427,5.061-.024.086-4.19,14.855-6.221-7.657-2.389-2.941L436.3,441.588a126.946,126.946,0,0,0-6.642,11.463c-3.534,6.757-6.3,12.9-6.3,12.9l-19.661-12.9-6.525-4.28-7.448-4.886-.362-.238-1.932.68h0c.012.089.032.2.047.3.861,5.726,6.227,25.405,13.074,49.34h86.06l-19.373-44.279Z"/>
    </g>
    <g>
      <path class="s" d="M556.867,502.17l19.7,12.381V219.273h548.481V450.02c.433-.274.85-.56,1.292-.826l14.2-8.257V347.554c-6.128-8.908-4.137-18.6-2.128-24.061.082-7.879-7.371-19.991,1.015-24.181.362-.181.739-.33,1.113-.485V201.071H556.867Z"/>
      <path class="s" d="M576.567,573.586a64.535,64.535,0,0,1-19.7-5.383v46.515H711.281V900h22.224V614.718h227.9V900h22.225V614.718h104.209c1.433-4.092,2.687-7.633,3.7-10.434l.614-7.2H576.567Z"/>
      <path class="s" d="M797.29,500.045c-3.878,1.142-8.69,2.374-8.71,3.316,0,0-.943,9.649-12.567,16.936-.058.036-.122.072-.182.108v20.824H929.723V386.241h0V320.225H874.476l-3.535,20.666-.183-.031-2.4-6.5-4.289,5.164-2.328-6.3-4.288,5.164-2.328-6.3-4.288,5.163-2.328-6.295-4.424,5.327-.094-.016,2.747-16.056H775.831v172.6l19.684-1.3,6.428-.425s.136,2.946.161,6.871C802.106,498.543,799.911,499.273,797.29,500.045ZM820.3,477.776H783.645v-4.629H820.3Zm98.792-44.735H889.1v-4.628h29.994Zm-26.474,2.909h26.474v4.628H892.619ZM919.093,425.5H894.624v-4.628h24.469Zm-69.154-60.8c37.138,0,67.245,6.095,67.245,13.614,0,1.738-1.626,3.4-4.559,4.926L881.206,417.2a1.348,1.348,0,0,1-.085.442L866.6,493.418A15.5,15.5,0,0,1,851.375,506h-2.64a15.5,15.5,0,0,1-15.225-12.585l-14.521-75.772a1.374,1.374,0,0,1-.085-.442l-31.6-33.927c-2.967-1.536-4.614-3.207-4.614-4.955C782.7,370.8,812.8,364.708,849.939,364.708Zm-36.39,100.9v4.629h-29.9V465.61h29.9Zm-19.329,19.7H783.645v-4.628H816v4.628Z"/>
      <path class="s" d="M1215.971,414.975a2.129,2.129,0,0,1-.13.411c-.38.955-1.829,3.567-7.17,7.739-1.285,1-2.793,2.1-4.566,3.278-10.209,6.808-23.5,7.88-23.132,8.423.068.1.145.206.217.309,3.211,4.62,9.42,10.356,14.6,14.764,4.678,3.983,8.508,6.878,8.508,6.878,1.546-1.854,3.636-4.262,5.943-6.878,3.154-3.575,6.715-7.538,9.865-11.02,2.929-3.237,5.495-6.05,7.046-7.746.978-1.071,1.557-1.7,1.557-1.7Z"/>
      <path class="s" d="M1177.719,432.431c-2.388-2.035-5.4-5.27-6.519-9.306a12.148,12.148,0,0,1-.419-2.432c-.015-.221-.02-.446-.022-.671,0-.083-.006-.164-.005-.247a42.375,42.375,0,0,0-7.939,7.51c-2.1,2.668-3.791,5.788-3.791,8.914,0,.283.006.573.015.865.265,8.2,4.1,19.713,4.1,19.713l5.587-6.878,11.958-14.72.287-.353h0l0,0A25.857,25.857,0,0,1,1177.719,432.431Z"/>
      <path class="s" d="M448.818,424.762a12.322,12.322,0,0,1-.555,2.552c-2.5,7.695-11.915,14.243-11.957,14.273h0c.118-.175-.2-.1-1.848-.522-.444-.114-.979-.262-1.635-.462-4.215-1.289-13.181-4.679-31.618-14.051-1.132-.575-2.293-1.168-3.5-1.79a49.742,49.742,0,0,0-8.343,18.885l.362.238,7.448,4.886,6.525,4.28,19.661,12.9s2.768-6.142,6.3-12.9a126.946,126.946,0,0,1,6.642-11.463l9.314,11.463,2.389,2.941,6.221,7.657,4.19-14.855.024-.086,1.427-5.061A46,46,0,0,0,448.818,424.762Z"/>
    </g>
    <path class="k" d="M407.428,832.61,389.8,802.1l-36.545,5.46S370.966,851.11,407.428,832.61Z"/>
    <g>
      <path class="t" d="M801.943,491.1l-6.428.425-19.684,1.3-22.467,1.488c-5.81-1.828-25.013,9-35.572,11.221l4.75,22.157.9,4.22c10.65-1.28,42.533-5.525,52.384-11.51.06-.036.124-.072.182-.108,11.624-7.287,12.567-16.936,12.567-16.936.02-.942,4.832-2.174,8.71-3.316,2.621-.772,4.816-1.5,4.814-2.074C802.079,494.046,801.943,491.1,801.943,491.1Z"/>
      <path class="t" d="M443.324,361.505l-13.561-4.526.009,0a82.555,82.555,0,0,1-13.823,1.11c-.28,2-.647,4.083-1.129,6.184a37.8,37.8,0,0,0-4.521-6.388,102.461,102.461,0,0,1-11.017-1.343c-6.976,8.438,8.362,27.7,10.923,30.8.026.715.066,1.424.125,2.124a56.114,56.114,0,0,0,8.952,25.279s-8.149.5-16.166,1.267L401.2,426.552c18.437,9.372,27.4,12.762,31.618,14.051l1.635.462c1.648.421,1.966.347,1.848.522h0c.042-.03,9.452-6.578,11.957-14.273q-.148-1.269-.3-2.552a78.646,78.646,0,0,1-15.992-13.086,46.592,46.592,0,0,0,14.751,1.353,64.289,64.289,0,0,0,15.308-2.742s4.378-9.386,9.651-28.95l.042-.161c.721-2.691,1.712-8.194,2.58-13.558C465.347,369.02,452.353,366.465,443.324,361.505Z"/>
      <path class="t" d="M375.015,763.732l-.54.147-25.3,6.9c1.225,4.641,1.934,7.323,1.934,7.323l2.147,29.45L389.8,802.1l-2.685-6.966,21.567,10.462,2.75-8.5-35.208-30.215Z"/>
    </g>
    <path class="u" d="M400.552,493.968c-6.847-23.935-12.213-43.614-13.074-49.34-.015-.1-.035-.212-.047-.3h0L364.9,451.444c.26-.034.516-.073.778-.1.115.13.218.265.332.4,14.057,16.259,20.223,35.688,20.223,61.536,0,9.768-1.956,21.539-4.922,33.779q-.368,1.517-.755,3.042l-4.783,92.476-.891,17.232-2.086,40.337c.506,3.09.989,6.16,1.449,9.187h60.287l.255-46.157.019-3.367.27-49.056S414.676,543.343,400.552,493.968Z"/>
    <g>
      <path class="v" d="M478.679,453.027s-.422-.19-1.185-.486Z"/>
      <path class="v" d="M723.447,531.915l-.9-4.22-4.75-22.157-.5-2.352-.686-3.2s-34.289,6.617-73.546,14.284c-16.859,3.293-34.633,6.779-51,10.018l-15.487-9.734-19.7-12.381-78.188-49.143s9.107,23.2,32.386,58.841c7.99,10.449,12.393,21.265,10.939,38.542,9.647,5.112,18.884,9.572,27.124,13.323a51.72,51.72,0,0,0,7.739,4.47,64.535,64.535,0,0,0,19.7,5.383c21.711,2.61,48.127-3.085,76.252-12.46,23.044-7.682,47.231-17.826,70.911-27.888Z"/>
      <path class="v" d="M352.655,628.672c.034.045.072.086.106.132a38.274,38.274,0,0,1,3.519,6.023,129.882,129.882,0,0,1,7.673,22.2c.915,3.436,1.8,7.035,2.641,10.751,2.341,10.288,4.41,21.445,6.2,32.368l2.086-40.337.891-17.232,4.783-92.476a477.232,477.232,0,0,1-16.531,50.8C358.262,615.965,353.44,626.905,352.655,628.672Z"/>
    </g>
    <g>
      <path class="w" d="M1158.074,769.963c-8.314-20.27-11.114-46.591-12.058-62.154h-22.21l-7.834,53.448-.023-.054-.006-.016H1105.2L1108.815,900h76c1.393-7.415,2.919-14.76,4.529-22.033C1178.988,835.3,1167.57,793.114,1158.074,769.963Z"/>
      <path class="w" d="M494.7,663.229v0l-30.76-.028c-.332,12.1-2.226,48.238-13.035,74.591-8.293,20.221-18.362,54.964-28.143,92.494,6.026,23.757,12.557,47.5,17.681,69.718l65.341.013,5.637-162.542c.035-2.525-1.187-16.2-2.475-29.489Z"/>
      <polygon class="w" points="308.862 616.343 308.865 616.343 308.865 616.331 308.862 616.343"/>
      <path class="w" d="M365.673,451.342c-.262.029-.518.068-.778.1-17.241,2.246-28.084,14.724-32.305,36.35L308.873,616.286c0-.013.006-.031.012-.033.067-.012.132-.022.2-.035,15.07-2.8,26.793-.967,35.365,4.688h0a32.558,32.558,0,0,1,8.207,7.766c.785-1.767,5.607-12.707,11.365-27.779a477.232,477.232,0,0,0,16.531-50.8q.389-1.526.755-3.042c2.966-12.24,4.922-24.011,4.922-33.779,0-25.848-6.166-45.277-20.223-61.536C365.891,451.607,365.788,451.472,365.673,451.342Z"/>
    </g>
    <g>
      <path class="x" d="M851.316,423.5c-.419,0-.838.006-1.261.006s-.842,0-1.26-.006c-15.891-.128-28.712-2.666-29.806-5.858l14.521,75.772A15.5,15.5,0,0,0,848.735,506h2.64A15.5,15.5,0,0,0,866.6,493.418l14.52-75.772C880.028,420.838,867.207,423.376,851.316,423.5Z"/>
      <path class="x" d="M308.7,617.23l.028.017-.014-.094Z"/>
    </g>
    <g>
      <path class="d" d="M515.547,583.281l0,.009c-8.706,38.619-17.427,79.939-17.427,79.939h-.47l-2.952,0v0l14.246,44.753.428,1.346h21.409Z"/>
      <path class="d" d="M372.791,700.141c-1.787-10.923-3.856-22.08-6.2-32.368-.845-3.716-1.726-7.315-2.641-10.751a129.882,129.882,0,0,0-7.673-22.2,38.274,38.274,0,0,0-3.519-6.023c-.034-.046-.072-.087-.106-.132a32.558,32.558,0,0,0-8.207-7.766h0c-8.572-5.655-20.295-7.486-35.365-4.688-.066.013-.131.023-.2.035-.006,0-.008.02-.012.033l-.008.045v.012a4.682,4.682,0,0,0,.069.685l.014.094c2.008,13.25,28.919,156.746,28.919,156.746l.816-.223,9.5-2.593.991-.27,25.3-6.9.54-.147,5.817-1.587s-2.288-24.478-6.592-52.817C373.78,706.3,373.3,703.231,372.791,700.141Z"/>
    </g>
  </g>
</svg>
