<?xml version="1.0" encoding="UTF-8"?>
<svg id="Ebene_1" data-name="Ebene 1" xmlns="http://www.w3.org/2000/svg" viewBox="0 0 1892.15686 953.67905">
  <defs>
    <style>
      .cls-1 {
        fill: #032b28;
      }

      .cls-2 {
        fill: #011413;
      }

      .cls-3 {
        fill: #053634;
      }

      .cls-4 {
        fill: #66b8b2;
      }

      .cls-5 {
        fill: #eff1f2;
      }

      .cls-6 {
        fill: #02201e;
      }

      .cls-7 {
        fill: #8a9097;
      }

      .cls-8 {
        fill: #c1c7cc;
      }

      .cls-9 {
        fill: #2e908b;
      }

      .cls-10 {
        fill: #8dd2cd;
      }

      .cls-11 {
        fill: #b6ede8;
      }

      .cls-12 {
        fill: #b2b9c0;
      }

      .cls-13, .cls-14 {
        fill: #d0d4d8;
      }

      .cls-15 {
        fill: #def5f3;
      }

      .cls-16 {
        fill: #116864;
      }

      .cls-17 {
        fill: #0a4f4b;
      }

      .cls-18 {
        fill: #147671;
      }

      .cls-19 {
        fill: #419e98;
      }

      .cls-20 {
        fill: #18837e;
      }

      .cls-21 {
        fill: #a1dfdb;
      }

      .cls-22 {
        fill: #595e62;
      }

      .cls-23 {
        fill: #79c5c0;
      }

      .cls-14 {
        fill-rule: evenodd;
      }
    </style>
  </defs>
  <path id="Path" class="cls-4" d="M1809.37983,7.55214c-26.30318-.72215-24.90512,38.73265-24.90512,39.47539,0,21.42419,11.8175,38.01281,25.04596,38.02562h0l-48.66223,344.77191h72.45552V46.36667c0-21.43699-6.61594-38.33906-23.93414-38.81453Z"/>
  <polygon id="Path-2" data-name="Path" class="cls-22" points="1788.89047 207.56672 1892.15686 941.11141 1857.79875 941.11141 1754.51953 207.56672 1788.89047 207.56672"/>
  <rect id="Rectangle" class="cls-22" x="1711.7224" y="696.71179" width="125.57416" height="19.86189"/>
  <polygon id="Path-3" data-name="Path" class="cls-8" points="1759.38582 207.56672 1656.11943 941.11141 1690.49028 941.11141 1793.75668 207.56672 1759.38582 207.56672"/>
  <polygon id="Path-4" data-name="Path" class="cls-22" points="1482.75382 207.56672 1586.02018 941.11141 1551.6621 941.11141 1448.38292 207.56672 1482.75382 207.56672"/>
  <polygon id="Path-5" data-name="Path" class="cls-8" points="1453.24913 207.56672 1349.98278 941.11141 1384.35367 941.11141 1487.62003 207.56672 1453.24913 207.56672"/>
  <polygon id="Path-6" data-name="Path" class="cls-15" points="1750.21679 505.39236 1362.66056 505.39236 1421.82356 85.18121 1809.37983 85.18121 1750.21679 505.39236"/>
  <path id="Path-7" data-name="Path" class="cls-7" d="M1337.21534,505.39236h442.16039c0,19.19471-15.56039,34.7551-34.7551,34.7551h-372.65024c-19.19471,0-34.75506-15.56039-34.75506-34.7551h0Z"/>
  <path id="Path-8" data-name="Path" class="cls-8" d="M1837.2968,85.42452c.00539,1.31524-.08449,2.62916-.26919,3.9314l-58.54831,416.03644h-28.26252l59.16304-420.21115,3.84176-27.40452c13.70079,1.91499,23.93531,13.57111,24.06216,27.40452l.01305,.24331Z"/>
  <path class="cls-7" d="M1837.29659,85.18119c-.12781-13.83337-10.36292-25.48792-24.0625-27.40253l.00037-.00201h-39.38293l27.37878,27.37891,36.06628,.02563Z"/>
  <path id="Path-9" data-name="Path" class="cls-10" d="M1785.44569,46.36667c0-21.43699,10.70567-38.81453,23.93414-38.81453h-387.67151c-13.21565,0-23.93414,17.37754-23.93414,38.81453s10.71849,38.81453,23.93414,38.81453h387.67151c-13.21565,0-23.93414-17.37754-23.93414-38.81453Z"/>
  <rect id="Rectangle-2" data-name="Rectangle" class="cls-22" x="1485.30217" y="488.66792" width="80.74087" height="16.72444"/>
  <rect id="Rectangle-3" data-name="Rectangle" class="cls-20" x="1566.04304" y="488.66792" width="30.11935" height="16.72444"/>
  <polygon id="Path-10" data-name="Path" class="cls-23" points="1591.286 112.26048 1588.95731 128.8149 1440.91687 128.8149 1443.24815 112.26048 1591.286 112.26048"/>
  <polygon id="Path-11" data-name="Path" class="cls-21" points="1511.23477 135.74365 1509.56425 147.61913 1438.43794 147.61913 1440.11031 135.74365 1511.23477 135.74365"/>
  <polygon id="Path-12" data-name="Path" class="cls-21" points="1505.27487 190.29579 1503.60435 202.17127 1432.47804 202.17127 1434.15041 190.29579 1505.27487 190.29579"/>
  <polygon id="Path-13" data-name="Path" class="cls-21" points="1491.59823 282.42108 1489.92772 294.29656 1418.8014 294.29656 1420.47377 282.42108 1491.59823 282.42108"/>
  <path id="Path-14" data-name="Path" class="cls-8" d="M1243.87348,261.50495c.34576-.37136,.58908-.78116,.93482-1.15252l160.64938-2.33067,51.2234-10.68007,2.56117,9.55317c-.06401,0-25.88061,7.68351-25.88061,7.68351,0,0,3.00938,21.76995,3.02216,21.69311-38.41755,8.60551-54.05348-3.84176-54.05348-3.84176l-107.12093,23.46031-1.78001,.44821c-4.79049,1.22023-9.81876,1.14953-14.57306-.2049-17.92819-5.18637-28.0448-27.72468-14.91881-44.6284h-.06403Z"/>
  <polygon id="Path-15" data-name="Path" class="cls-8" points="1426.83066 245.58729 1432.47804 252.47682 1410.22147 269.62387 1378.93679 259.26393 1426.83066 245.58729"/>
  <polygon id="Path-16" data-name="Path" class="cls-18" points="1181.21447 210.08947 1224.62629 168.72657 1283.07219 259.78897 1247.71524 309.41164 1181.21447 210.08947"/>
  <path id="Path-17" data-name="Path" class="cls-13" d="M1415.0749,265.88455s1.88246,12.12714,7.68351,16.44273c3.8033,3.19761,8.77635,4.64771,13.70228,3.99542l-3.0222-21.69311-18.36358,1.25497Z"/>
  <path id="Shape" class="cls-2" d="M1065.09101,138.04376c-15.62313,14.21449-16.64761,25.13788-13.84312,36.1381,3.67528,13.93277,10.16785,19.49051,10.16785,19.49051l143.89933,2.56117v-33.52571c6.95751-11.07069,10.58484-23.90856,10.44958-36.9833,0-9.13057-6.31329-23.90852-10.0782-32.75736-.16089-.26394-.28578-.54818-.37138-.84519v-26.63617c17.78732-17.92819,7.81158-36.13811-3.00936-43.47586,0-.08964-.10245-.08964-.10245-.19209-3.9442-10.0654-11.75578-18.81179-26.81545-20.88634-36.61193-5.12234-51.76125,11.29476-58.07454,39.05784-.93482,4.41802-2.06174,10.43677-3.09901,16.27623-2.01562,11.34263-8.57457,21.37071-18.1587,27.76308-11.29476,7.33776-20.80951,19.10633-26.63616,32.84701-2.62742,6.76109-4.0909,13.91829-4.32838,21.16807Zm136.1774-96.81222l1.60073,2.70204c-.29637,11.97668-1.97219,23.87929-4.99427,35.4722-5.26321,19.4777-9.59159,28.89-9.59159,28.89-5.04777,1.52282-10.25711,2.44692-15.52068,2.75325,.38418,3.57283,.89641,7.23531,1.28059,11.00023,1.79281,14.86759,3.48319,28.99244,3.48319,28.99244l-54.45459-.00373,12.04161-67.55993c-4.62291-6.01875-15.72558-21.92361-9.13057-29.17172,7.33775-7.93963,16.08414,9.57878,17.12142,11.93505,15.5335-.37137,50.45506-3.62405,58.16417-24.99702v-.0128Z"/>
  <path id="Path-18" data-name="Path" class="cls-8" d="M1158.70681,109.76928c4.73325,.94031,9.42473,1.37116,14.30413,1.28059,.38418,3.57283,.79396,7.28653,1.17814,11.05145-5.70091-3.36222-10.91077-7.49477-15.48227-12.28081v-.05122Z"/>
  <path id="Path-19" data-name="Path" class="cls-13" d="M1173.10836,111.06183c-4.80509,.27917-9.62506-.15234-14.30413-1.28059,4.60851,4.68343,9.7686,8.79,15.36702,12.22959,1.69036,14.88039,3.48319,28.99244,3.48319,28.99244h-54.83466l12.24239-67.57648c-4.6101-6.01875-15.72558-21.92361-9.13057-29.17172,7.68351-8.28538,16.27623,9.69403,17.40316,11.94786,15.62313-.37137,50.16051-3.76492,57.88244-25.02263l1.79281,2.72765c-.34692,11.97246-2.02192,23.86939-4.99427,35.47221-5.26321,19.49051-9.59159,28.88999-9.59159,28.88999,0,0-6.43758,2.42746-15.31579,2.79168Z"/>
  <path id="Path-20" data-name="Path" class="cls-20" d="M1204.18815,155.10115c14.2017,3.20146,25.6117,14.58586,27.76309,28.97964l2.44592,26.07271c-21.74435-33.42328-30.20902-55.05236-30.20902-55.05236Z"/>
  <path id="Path-21" data-name="Path" class="cls-8" d="M1204.08572,899.54359l-17.03178,.06409s-32.46284-113.49826-17.68488-199.69443c19.56734-3.11181,38.76329-6.78708,57.02445-8.37508,0,0-22.12851,208.00541-22.30779,208.00541Z"/>
  <path id="Path-22" data-name="Path" class="cls-5" d="M1061.88955,899.60768h0l49.50742-194.14955c-21.87239-.19204-43.38623-3.94415-63.61946-14.77792-4.99428,36.13815,.28173,84.0448-3.58564,208.73536l17.69768,.19212Z"/>
  <path id="Shape-2" data-name="Shape" class="cls-20" d="M1187.05393,899.60768v.47381l-8.09331,40.97872h79.99815c10.49401,.00313,20.43731-4.69597,27.09718-12.80585l.19208-.28177-82.16232-28.429-17.03178,.06409Zm-181.25401,31.72004c-.0034,2.57211,1.01683,5.0398,2.83556,6.85852,1.81872,1.81872,4.28641,2.83895,6.85847,2.83551h49.31532l-2.83009-41.97754-17.78732-.19212-36.70156,27.02039c-1.15533,1.57939-1.75024,3.49933-1.69037,5.45523h0Z"/>
  <path id="Path-23" data-name="Path" class="cls-20" d="M1108.09306,339.08279l-39.05784-136.74087-.29454-2.16419c.01444-.25514-.0159-.51086-.08964-.75554,0-.46101-.08964-.93482-.08964-1.40865,.01661-.28558-.01808-.57182-.10244-.84517,0-.37138-.08964-.84519-.08964-1.28059v-6.77431c-.01477-.34817,.01536-.69678,.08964-1.03727l.10244-.84519c0-.37136,.08964-.75554,.08964-1.03727s.08964-.56346,.08964-.84519l.10245-1.03727c0-.28173,.08964-.56346,.08964-.84519,.02067-.31895,.08531-.63355,.19209-.93482,.08964-.28173,.08964-.56346,.19209-.84519s.08964-.66589,.17928-.94762l.19209-.75554c.08964-.28173,.19209-.65311,.28173-.93484l.19208-.75554c.08964-.28173,.19209-.65309,.28173-.93482,.10576-.23937,.17069-.49474,.19209-.75556,.07876-.33171,.20377-.65071,.37137-.94762,.07737-.22448,.17154-.44278,.28173-.65311,.08964-.37136,.28173-.66589,.37137-1.03727l.19208-.56346c.19209-.37136,.37137-.84517,.56346-1.28059,.07873-.07113,.11709-.17664,.10245-.28171,.28173-.46101,.46101-.93484,.74274-1.4983,.10244-.10243,.19208-.28171,.28172-.38416,.16866-.37333,.39321-.71879,.66591-1.02447,.09118-.21125,.21666-.40597,.37137-.57626,.21535-.26237,.4041-.54548,.56345-.84519l.38418-.56346c.16167-.27034,.35045-.5235,.56346-.75554,.13123-.20875,.29067-.39837,.47381-.56346,.17928-.17928,.37137-.46101,.6531-.74274s.37137-.38418,.47382-.57626c.19463-.2396,.41349-.45847,.65309-.6531l.56346-.56346c.23171-.24383,.48454-.46667,.75555-.6659l.56345-.46101c.28173-.19209,.47382-.38418,.75555-.56346l.65309-.47381c.28173-.19209,.47382-.37137,.75555-.56346l.6659-.47382,.84519-.56345,.75554-.47382,.84519-.47382c.28173-.08964,.46101-.28172,.74274-.37136l.94763-.47382,.75554-.37137c.33662-.17724,.68292-.33543,1.03728-.47382l.74274-.28172c.36338-.16969,.74612-.2944,1.13972-.37137l.58907-.14087c14.42561,49.45659,24.87945,86.58368,31.36152,111.38134,6.48207,24.79764,11.98431,48.71174,16.50674,71.74232l-31.23347,.06401Z"/>
  <path id="Path-24" data-name="Path" class="cls-19" d="M1226.54717,339.08279h-87.20784l-47.99633-183.12366v-.19208c1.28059-.37137,28.71071-9.50195,28.71071-9.50195l5.32724-12.99794h52.70888l4.80219,12.98514,18.04344,7.42739,3.48319,1.40864s8.46467,21.76995,30.209,55.06516l.65311,1.03727c9.79647,12.80585,13.93275,26.16234,7.91401,52.3247-1.98491,8.65675-4.04665,17.78732-6.12119,26.89229-5.96753,27.18681-10.52641,48.67503-10.52641,48.67503Z"/>
  <path id="Path-25" data-name="Path" class="cls-21" d="M1112.71597,355.55114h110.29679l10.34713,19.9515c.65309,4.43081,4.89182,46.58769,4.80219,51.0185,.08963,.65311,20.23323,264.825,19.84907,264.825-10.55302-.93988-21.17264-.84546-31.7073,.28169-18.1715,1.60073-37.45711,5.26319-57.03725,8.37508-19.28561,3.09899-38.86576,5.737-58.15137,5.45523-21.76995-.19204-43.38622-4.04661-63.61946-14.77792-9.33884-4.99291-17.98012-11.19293-25.70134-18.44046-.74274-.65303,27.76308-270.85651,90.92154-316.68862Z"/>
  <polygon id="Path-26" data-name="Path" class="cls-2" points="1108.09306 339.08279 1226.54717 339.08279 1222.97435 355.55114 1112.5751 355.55114 1108.09306 339.08279"/>
  <path id="Path-27" data-name="Path" class="cls-8" d="M1149.30227,361.92842c-.47381,1.28059-9.02812,2.638-9.60438,3.957-1.11748,2.86482-2.47102,5.63187-4.04665,8.27261-3.57282,5.83946-36.93207,7.19688-36.93207,7.19688l10.79533-37.26503,41.86233,11.46125c0-.08965-.84519,3.08618-2.07456,6.37729Z"/>
  <path id="Path-28" data-name="Path" class="cls-13" d="M1002.61127,251.7469l43.7704,22.39744c-4.61011,5.12234-8.84884,9.79647-12.42168,14.21448,19.09352,17.50559,37.06013,42.25932,57.62633,61.4681l17.92819-5.73703-10.79533,37.26503s-14.08644-5.36565-19.20878-7.42742l-102.67731-87.87374c1.60073-2.25382,9.69403-13.03635,25.77818-34.30686Z"/>
  <path id="Path-29" data-name="Path" class="cls-18" d="M1052.5925,181.54522c15.90487-19.29841,23.89572-24.84334,38.77612-25.79097,12.31922,15.53349,16.18659,23.90853,12.60095,44.98695-5.4809,31.80973-70.00958,87.61762-70.00958,87.61762,0,0-21.37296-14.62428-57.1269-2.30506,51.30024-74.49163,75.75941-104.50854,75.75941-104.50854Z"/>
  <path id="Path-30" data-name="Path" class="cls-23" d="M89.79201,462.30339c51.82334-.26216,103.34663-15.56013,103.34663-15.56013,0,0,4.92543,37.16699,2.48329,37.6085-63.37187,13.41115-160.88186,44.15194-163.93114-22.07597,0,.12419,29.20929,.20697,58.10122,.0276Z"/>
  <path id="Path-31" data-name="Path" class="cls-10" d="M255.15333,491.41064c-12.11056,7.44925-16.80096-2.64066-22.49466-7.68029-8.33983-8.93238-3.84437-52.09614-3.84437-52.09614l20.31838,27.13271,6.02065,32.64373Z"/>
  <path id="Path-32" data-name="Path" class="cls-12" d="M531.94818,893.36433l-.11038,.30359c-2.71102,10.62492-10.03584,19.4785-19.96496,24.13178l-75.6516,35.39049-10.33432-42.99292,19.86839-9.34092,86.19287-7.49202Z"/>
  <path id="Path-33" data-name="Path" class="cls-14" d="M.00001,627.79042l232.50139-.40014c0,7.77452-3.09496,15.22919-8.6014,20.71757-5.50649,5.48834-12.97135,8.55875-20.74583,8.53307h-5.17406s16.3776,295.01778,16.3776,295.01778h-18.55759s-16.32245-295.01778-16.32245-295.01778l-126.71607,.55193-16.3224,295.16953H17.67463s16.50178-295.72146,16.50178-295.72146h-5.38101C12.87022,656.6029-.01523,643.6742,.00001,627.74899v.04143Z"/>
  <path id="Path-34" data-name="Path" class="cls-12" d="M263.43538,881.89863l22.20014,6.89874,56.56968,60.23977-.30355,.09659c-9.99734,4.45504-21.47208,4.15583-31.22371-.814l-67.51107-35.19739,20.2685-31.22371Z"/>
  <g>
    <path class="cls-21" d="M351.97384,569.86857c-55.5625-37.30841-192.97162-46.41473-192.97162-46.41473l-83.99908-7.25751c-4.44342,2.23798,61.77649,24.46802,126.28839,29.81622,42.76147,7.05811,130.29456,31.71857,147.72961,37.84662l.00092-.00446c.00415,.00146,.00873,.00299,.01288,.00446l2.9389-13.9906Z"/>
    <path class="cls-21" d="M323.97872,634.35801c-9.71741-6.96771-30.83734-9.91895-54.66559-5.90533-24.24219,68.33893-8.49927,174.16559-6.07092,253.87366l22.39331,6.49866,38.95032-187.64581c-4.25629-22.05225-4.46198-44.69519-.60712-66.82117Z"/>
  </g>
  <path id="Path-35" data-name="Path" class="cls-11" d="M75.00315,516.19637c22.50369,6.08469,18.5714,10.40327,75.36184,19.62002,118.45139,10.19632,215.24075,53.97574,215.24075,53.97574l80.09437,311.29875-19.88216,9.32711c-40.96473-66.9316-88.71782-137.90581-101.60466-209.39056-3.94608-22.31055-4.66356-44.62105-.60709-66.8212-10.84482-5.27065-29.30586-6.29165-54.65183-5.68456-33.11396,.71745-77.87299,4.05642-133.33889,4.05642-89.53184,0-109.75896-46.05596-91.71187-112.36666l31.09954-4.01507Z"/>
  <path id="Path-36" data-name="Path" class="cls-10" d="M138.54058,290.84208h-56.88703s6.69179-37.41878,6.69179-37.41878h0l5.80873-32.54826c-.18805-.21786,6.99533-21.59306,7.20229-21.59306,45.62828,0,59.01182-10.44469,63.17868-18.25407-.4009,11.96911-2.07994,23.8611-5.00849,35.47333-.30355,1.37975-.70369,2.53874-1.00723,3.75292-4.98087,17.74356-8.92697,26.21521-8.92697,26.21521-5.13612,1.60337-10.45262,2.5582-15.82571,2.84229h0c.40014,3.64253,.86925,7.63001,1.2832,11.4657l3.49076,30.06472Z"/>
  <path id="Path-37" data-name="Path" class="cls-9" d="M149.59234,246.52457c-5.13612,1.60336-10.45262,2.5582-15.82571,2.84229h0l-.49669-4.76014,16.3224,1.91785Z"/>
  <path id="Path-38" data-name="Path" class="cls-18" d="M31.47635,462.37238l-8.35174-138.94064c5.35343-21.4137,15.8671-30.45104,33.11396-32.64485,14.65296,14.14242,18.98535,46.84245,18.1713,62.19905-2.00065,39.86093-14.00444,109.38644-14.00444,109.38644H31.47635Z"/>
  <path id="Path-39" data-name="Path" class="cls-3" d="M175.26947,301.45235c5.51899,6.22266,9.93416,8.98215,12.16935,23.89724l1.91787,27.81573c-4.13924-6.38824-8.72002-10.4861-15.10826-18.0885l-1.51769-1.82128c-4.4566-5.38101-8.27849-10.34811-11.76925-14.80469-6.75954-8.82582-12.79484-18.18337-18.04713-27.9813l32.35511,10.98281Z"/>
  <path id="Path-40" data-name="Path" class="cls-16" d="M50.5954,291.00766c6.49864-1.21419,21.91041-7.80938,26.46356-12.41773,5.89155-6.19508,5.98814-8.01634,5.98814-8.01634l54.55521,2.84229s-.20695,4.96709,5.78115,16.92951c5.13734,9.86954,11.17892,19.24137,18.04713,27.99509,3.44937,4.55317,7.29884,9.52025,11.75544,14.80469l1.51773,1.82128c5.70923,6.49288,11.06136,13.29126,16.03267,20.36508,8.27849,12.77646,11.14835,25.2494,4.8567,46.64928-.80024,2.93887-1.91783,6.08469-3.13201,9.42368-9.23052,25.1528-18.76458,52.22348-25.35978,70.78109-1.30615,3.8541-2.52033,7.29886-3.64251,10.33432-2.7595,7.91974-8.91435,29.0652-8.91435,29.0652,0,0-33.94063,9.91269-81.05907,7.45674-23.95241-1.25558-29.58181-8.83038-29.58181-8.83038l-.20695-2.44218-13.88026-178.36004c-1.62809-24.43535-3.25619-43.69663,20.77901-48.36018v-.04139Z"/>
  <path class="cls-11" d="M150.91695,139.55265c-19.35791-6.4848-62.1991-10.94141-71.41583,24.33881-2.31262,8.60327-3.64514,26.53339-.14838,42.0293-16.71204,2.20758-29.61279,16.50031-29.61279,33.81543,0,1.74121,.13214,3.45142,.38373,5.1225-13.82404,6.78912-23.34271,21.00195-23.34271,37.44275,0,23.02808,18.66797,41.69598,41.69598,41.69598s41.69598-18.66791,41.69598-41.69598c0-6.08142-1.31274-11.85284-3.65308-17.06256,7.02942-6.25006,11.46246-15.35663,11.46246-25.50269,0-2.91962-.36829-5.75299-1.05817-8.45776,13.10358-4.61664,23.36774-17.12335,25.44702-33.72974,25.95642-4.58533,34.52679-15.53979,35.40942-22.45367,2.91125-22.84863-17.12268-32.29993-26.86365-35.54236Z"/>
  <path id="Path-41" data-name="Path" class="cls-10" d="M146.22575,221.04062c-.19116-.21538-.35778-.45139-.49669-.70367-5.07746-6.69178-15.52217-22.31053-8.92697-29.51281,6.08469-6.5814,12.87303,2.93887,16.11545,8.72001,.20695,0-6.69179,21.49648-6.69179,21.49648Z"/>
  <path id="Path-42" data-name="Path" class="cls-1" d="M133.26993,343.00376l19.66141-19.00632,17.71596,6.07088c.82786,1.00721,1.66948,2.02823,2.53873,3.06304l1.51773,1.82126c5.70961,6.49736,11.06173,13.30037,16.03267,20.37889,8.27849,12.77646,11.14835,25.2494,4.8567,46.64928-.80024,2.93887-1.91783,6.08469-3.13201,9.42368-9.23052,25.1528-18.76458,52.22348-25.35978,70.78109-1.30615,3.8541-2.52033,7.29886-3.64251,10.33432-2.7595,7.91974-9.33153,30.51274-9.33153,30.51274,0,0-3.06552-.40632-6.44867,.28927-15.14735,3.11437-21.88143,4.19934-37.18835,5.29221l22.77966-185.61035Z"/>
  <path id="Path-43" data-name="Path" class="cls-18" d="M185.12728,467.71796s-34.26941-79.25848-45.3689-116.40448c-3.49618-11.68798-4.51296-38.96853,20.143-47.54684,23.98105-8.33492,29.5813,7.34359,34.72722,18.05078,16.34417,34.00733,44.58307,130.85127,42.02404,131.57338l-51.52536,14.32714Z"/>
  <path id="Path-44" data-name="Path" class="cls-21" d="M235.93779,453.58956c9.26609,27.58657,12.06658,40.58624-9.67962,45.74466-12.36951,2.3815-38.54016,.01547-64.31773-2.21543l12.70984-36.20745,6.83294-1.71285,2.42425,5.68191c8.23156-2.12276,44.42912-10.09753,52.03033-11.29084Z"/>
  <g>
    <path id="Path-45" data-name="Path" class="cls-3" d="M552.89525,523.68046l.38633,.17937,164.86615,62.21284c-39.03309,3.24242-50.85754,22.75208-63.73057,68.58732-140.94127-27.3742-230.7215-.95203-233.56378-78.02479l30.72698-12.41773,101.19073-40.66118,.12417,.12417Z"/>
    <path id="Path-46" data-name="Path" class="cls-3" d="M718.14772,586.07268l-4.87053,54.3483-29.5956,267.62977-40.75777,14.90126c-15.82571-150.87548-16.03267-233.71553-3.35278-279.34382,12.67989-45.62828,39.43321-54.15512,78.57668-57.53552Z"/>
    <path id="Path-47" data-name="Path" class="cls-14" d="M383.48976,629.06564l116.06446,.37256,116.06442-.37256c-.03044,15.89468-12.92823,28.76161-28.82296,28.75395h-5.33962s16.35003,295.03155,16.35003,295.03155h-18.47485s-16.35003-294.86594-16.35003-294.86594l-56.10053,.23453h-7.32646s-7.3265,0-7.3265,0h0l-56.10053-.23453-16.35003,294.86594h-18.47485s16.35003-294.94877,16.35003-294.94877h-5.33962c-7.64786,.00371-14.98329-3.03374-20.38981-8.44287-5.40657-5.40909-8.44047-12.746-8.43315-20.39386h0Z"/>
    <path id="Path-48" data-name="Path" class="cls-6" d="M888.96055,938.66736l-.20696,.3035c-7.60697,9.31768-19.00208,14.71877-31.03053,14.70816h-104.52973s9.12014-33.70724,9.12014-33.70724l45.11776-13.08007,81.52933,31.73421v.04143Z"/>
    <path id="Path-49" data-name="Path" class="cls-6" d="M683.6816,908.05075l59.32917,30.61662-.20695,.3035c-7.60697,9.31768-19.00207,14.71877-31.03055,14.70816h-75.12729s6.27784-30.72702,6.27784-30.72702l.81409-.3035,39.94369-14.59776Z"/>
    <path id="Path-50" data-name="Path" class="cls-3" d="M507.92926,631.35602l30.35446,1.53154c-10.80341-.66229-20.91699-1.11759-30.35446-1.53154Z"/>
    <path id="Path-51" data-name="Path" class="cls-17" d="M400.58486,538.34719c-2.02823,100.9562,43.3379,90.24934,107.3444,93.00883,9.43747,.41395,19.55105,.86925,30.35446,1.53154l90.53907,4.58073,83.52997,4.20826,61.04007-69.64971-223.89175-52.52703-148.91622,18.84737Z"/>
    <polygon id="Path-52" data-name="Path" class="cls-10" points="379.63339 504.30882 396.08389 504.01597 395.32416 493.86144 384.02009 494.15429 379.63339 504.30882"/>
    <path id="Path-53" data-name="Path" class="cls-19" d="M424.8546,454.38951c4.77391-21.19289,13.99069-62.9579,20.07534-98.65198,2.53877-14.70812,15.31521-57.65968-10.04457-63.33045-11.4657,4.84292-44.89696,18.01954-50.55391,42.66179-14.99021,42.9312-8.77147,140.2246-4.69806,169.23999,17.43011-11.84455,32.41864-28.65785,45.22119-49.91935Z"/>
    <path id="Path-54" data-name="Path" class="cls-11" d="M470.48536,230.8151s8.57008-25.93659,8.73603-26.58538c1.59934-8.58518,1.20708-32.37925,1.20708-32.37925,0,0,20.80662-10.06382,41.34162-6.94057,9.58101,1.50882,20.09748,8.6908,23.11511,12.34214-.22631,8.93221-1.08635,26.08747-2.65554,34.91407-.60352,3.37975-1.29756,6.8953-2.21797,10.42594-5.49208,21.50067-10.15437,31.86626-10.15437,31.86626-5.42467,1.776-11.0517,2.86084-16.74785,3.22887,.43752,3.92293,1.02599,8.07218,1.50882,12.22143h0c2.06707,16.17454,17.45472,21.59648,17.45472,21.59648l-85.79772-4.96658,16.38617-10.2849,7.82389-45.4385Z"/>
    <path id="Path-55" data-name="Path" class="cls-4" d="M416.7417,301.29266l38.96644-21.60697,64.87343,1.06252,41.87315,32.64516c6.75284,4.57778,11.4396,11.62276,13.05241,19.62002,2.53873,11.65887-.09659,25.34597-2.33178,39.447l-14.40236,85.18534v.30355s-9.32711,61.55055-9.32711,61.55055c-82.26058,40.53701-148.8886,18.84737-148.8886,18.84737-25.31618-139.98922-18.54831-168.12125-10.68373-206.76799,1.82439-8.98316,18.63577-26.25503,26.86815-30.28654h0Z"/>
    <path id="Path-56" data-name="Path" class="cls-19" d="M451.91181,179.71141c1.70493-62.04262,59.38708-53.7743,65.93535-42.94098,20.42942-9.18871,58.25551,20.33888,26.91732,42.51851-3.29129-3.98349-7.70051-6.88966-12.65897-8.34377-.27158,7.5441-1.41829,21.77226-3.68152,37.13203-2.73096,18.60374-15.75207,19.10165-25.99696,40.13458-1.35793,2.8064-4.87346,3.21379-7.89109,3.9682-4.72261,1.19197-15.31455,1.72005-19.11675,.66387-3.80221-1.05617-6.86511-2.23305-7.43847-6.03527-3.15343-20.9424-16.79316-41.02477-16.06891-67.09716Z"/>
    <path id="Path-57" data-name="Path" class="cls-11" d="M526.31166,228.49152c-3.42505-6.15598-12.97585-24.59374-8.23818-32.56031,3.56084-6.03527,9.05291,3.21379,12.52322,10.81823l-4.28504,21.74207Z"/>
    <path id="Path-58" data-name="Path" class="cls-10" d="M513.10949,257.74751l-.82988-5.26577,17.57773,1.97656c-5.42204,1.79651-11.04912,2.90165-16.74785,3.28921h0Z"/>
    <path id="Path-59" data-name="Path" class="cls-16" d="M773.36523,572.01304l33.96942,335.03052-45.11778,13.07999s-68.10437-210.17707-49.89168-278.44699c11.4105-42.78601,61.04005-69.66352,61.04005-69.66352Z"/>
    <path id="Path-60" data-name="Path" class="cls-19" d="M519.07427,350.6735l54.82075-4.40105c-.59328,6.89874-1.86263,14.17002-3.02165,21.53787l-12.0728,89.83541v.30355s-9.32707,61.55055-9.32707,61.55055c-13.89167,6.88392-28.40787,12.42801-43.35171,16.55698-.33113-50.94028,9.42033-139.45149,12.95248-185.3833Z"/>
    <path id="Path-61" data-name="Path" class="cls-10" d="M518.87697,514.6392s-2.00065-123.20524,.02758-161.92098c.63471-12.18318,8.858-38.21902,34.94905-38.01329,25.40117,.20819,24.06281,26.13366,24.06281,38.01329,0,37.2532-9.61685,161.92098-9.61685,161.92098h-49.42259Z"/>
    <path id="Path-62" data-name="Path" class="cls-11" d="M669.89228,523.33439l27.80253,7.90144,40.60178,28.68197c-4.59406,11.91985-30.35821-1.30368-49.16914-.74494-15.19544-1.42305-27.75078-4.09743-31.12859-10.25792l-138.98392-34.26689c28.10546-1.02104,50.55796-13.15334,51.81729-34.2359,27.03752,.86915,63.47656,28.53614,99.06006,42.92225Z"/>
  </g>
  <polygon class="cls-21" points="1654.90396 324.53762 1629.74956 324.53762 1634.99947 286.47583 1666.49888 286.47583 1661.66574 321.51614 1654.90396 324.53762"/>
  <polygon class="cls-21" points="1572.82278 224.62262 1547.66838 224.62262 1552.91829 186.56083 1584.4177 186.56083 1579.58456 221.60113 1572.82278 224.62262"/>
  <polygon class="cls-21" points="1653.76799 380.31366 1622.28993 380.31366 1627.53983 342.25187 1658.23207 342.25187 1658.63961 345.13749 1653.76799 380.31366"/>
  <polygon class="cls-21" points="1530.34081 324.53762 1505.18641 324.53762 1510.43631 286.47583 1541.93573 286.47583 1537.10258 321.51614 1530.34081 324.53762"/>
  <polygon class="cls-21" points="1529.20483 380.31366 1497.72678 380.31366 1502.97668 342.25187 1533.66892 342.25187 1534.07646 345.13749 1529.20483 380.31366"/>
  <polygon class="cls-21" points="1613.64134 380.31366 1582.16329 380.31366 1587.41319 342.25187 1618.10543 342.25187 1618.51297 345.13749 1613.64134 380.31366"/>
  <polygon class="cls-21" points="1735.84275 378.93251 1710.68835 378.93251 1715.81485 341.7654 1729.06301 340.87071 1747.43767 340.87071 1742.60452 375.91102 1735.84275 378.93251"/>
  <polygon class="cls-21" points="1750.40632 324.53762 1718.91431 324.53762 1724.16421 286.47583 1755.66363 286.47583 1750.40632 324.53762"/>
  <polygon class="cls-21" points="1713.657 324.53762 1682.16499 324.53762 1687.41489 286.47583 1718.91431 286.47583 1713.657 324.53762"/>
  <polygon class="cls-21" points="1616.69436 224.62262 1585.20235 224.62262 1590.45225 186.56083 1621.95166 186.56083 1616.69436 224.62262"/>
</svg>