<?xml version="1.0" encoding="utf-8"?>
<!-- Generator: Adobe Illustrator 27.2.0, SVG Export Plug-In . SVG Version: 6.00 Build 0)  -->
<svg version="1.1" id="Icon_x5F_contour" xmlns="http://www.w3.org/2000/svg" xmlns:xlink="http://www.w3.org/1999/xlink" x="0px"
	 y="0px" viewBox="0 0 192 192" style="enable-background:new 0 0 192 192;" xml:space="preserve">
<path d="M164,126.66998V68c0-6.62-5.38-12-12-12h-19.94l0.04999,8H152c2.21002,0,4,1.78998,4,4v56H52V91.04999l-8-3.28003v38.90002
	l-12,16V152c0,6.62,5.38,12,12,12h120c6.62,0,12-5.38,12-12v-9.33002L164,126.66998z M50,132h108l6,8H44L50,132z M164,156H44
	c-2.21002,0-4-1.79004-4-4v-4h128v4C168,154.20996,166.21002,156,164,156z M123.81738,106.52539l11.35449-11.354l5.65625,5.65723
	l-16.64551,16.646l-10.81641-9.46436l5.26758-6.02051L123.81738,106.52539z M140.82812,76.82861l-16.64551,16.646l-10.81641-9.46436
	l5.26758-6.02051l5.18359,4.53564l11.35449-11.354L140.82812,76.82861z M71,108h33v8H71V108z M104,92H87.94L104,85.19V92z
	 M40.28003,56.89001L35.38,74.42999l-0.28998,1.04999L44,79.13l8,3.26996l19.35999,7.92999L72,90.06L86.29999,84l21.15002-8.96002
	l-1.31-4.5L104.22998,64l-2.33997-8l-0.04999-0.19l7.37-3.29004L116,49.48999l0.02002-0.01001L116.06,56l0.04999,8l0.01001,2.54999
	l8-0.04999l-0.01001-2.5L124.06,56L124,45.91998V45.75l-0.14001-0.06L116,42.48999l-16.40997-6.66998L70.96997,24.17999
	l-26.37,11.03998l-19.95996,8.35999L16.16998,47.13l8.64001,3.5L32.82001,53.87L40.28003,56.89001z M71.31,81.66998L52,73.76001
	l-0.52002-0.22003l-6.76996-2.77002l3.02997-10.85999l7.47003,3.02002L57.84998,64l13.44,5.44l12.19-5.44l3.61005-1.60999
	l7.37-3.29004L95.89001,64l1.89001,6.45001l-1.49005,0.62994L71.31,81.66998z M64.79999,35.44l6.22003-2.60004l6.75,2.73999
	l26.02997,10.59003L81.78003,56l-10.64001,4.75L59.40002,56L37.19,47.01001L64.79999,35.44z"/>
<g>
</g>
<g>
</g>
<g>
</g>
<g>
</g>
<g>
</g>
<g>
</g>
<g>
</g>
<g>
</g>
<g>
</g>
<g>
</g>
<g>
</g>
<g>
</g>
<g>
</g>
<g>
</g>
<g>
</g>
</svg>
