<svg xmlns="http://www.w3.org/2000/svg" viewBox="0 0 1600 1600.00005"><g id="Ebene_2" data-name="Ebene 2"><g id="background"><rect width="1600" height="1600" style="fill:none"/></g><g id="foreground"><path d="M961.58832,725.90692,959.21821,712.867,946.77154,643.5233c17.78013-26.67021,40.89373-64.60059,53.93366-100.75412a174.50008,174.50008,0,0,0,9.48332-38.52363c0-2.3701.59325-4.74021.59325-6.52,0-13.63028-2.96336-26.077-11.26018-34.967-17.18689-18.96663-36.74677-11.85342-54.52691,5.33347-31.41042,29.63356-57.49027,88.30744-57.49027,88.30744l30.82006,108.45768c.59325,2.37011.59325,5.33346,1.1865,7.70357a111.02739,111.02739,0,0,1,.59325,24.3001c-2.96335,36.15352-22.52035,75.27041-57.49027,95.42065-48.007,27.26346-69.93405,30.22681-101.94061,50.37706-15.41,10.07657-34.967,29.04031-49.78381,44.45034-8.89007,78.82412-17.78014,147.57457-17.78014,147.57457H995.66691L962.18157,727.68088l-.59325-1.77685Z" style="fill:#a4abb3"/><path d="M959.21821,711.09014l41.487-170.09781c-13.03993,35.56027-36.15353,74.08391-53.93366,100.75411Z" style="fill:#e0e2e5"/><path d="M572.5145,264.00683c-.16631-.08211.16632.08348,0,0-2.36719,8.77908-26.98085,114.63-28.76041,124.57775.59319,50.32878,4.73994,101.24192,13.63218,150.985,4.14675,23.40857,8.88669,47.40424,16.00491,71.98154l3.55357,12.2907,32.6529,83.35806c38.52378-48.57159,82.06468-44.54814,114.069-36.94189l7.93316,1.619a125.98623,125.98623,0,0,1,58.14878,33.23457l20.11286-64.73932s6.15914-1.74487,32.23712-11.694c26.078-10.53352,43.28589-138.14413,53.95213-194.90906,11.265-62.61948,8.55407-76.66326,8.55407-76.66326s-.34926-.14232-.87592-.35034l43.042-42.895,53.93551-30.27993,13.48249-25.88423C999.05941,152.9937,665.466,47.70268,572.5145,264.00683Z" style="fill:#a4abb3"/><path d="M643.50822,479.72033c-33.96885-6.01514-77.18592,6.938-80.05127,11.58939L559.47883,475.531c7.8666-11.85312,21.91932-25.7714,35.65129-27.78272s48.54325.78072,76.4777,9.68826l-.78273,3.83759A23.59153,23.59153,0,0,1,643.50822,479.72033Z" style="fill:#c1c7cc"/><path d="M765.59663,481.72025c33.54851-8.035,77.46263,2.31141,80.60091,6.78321l3.02775-15.98837c-8.5611-11.36165-23.42073-24.415-37.24838-25.6018s-48.40976,3.68124-75.76176,14.24277L737.2259,464.94A23.59152,23.59152,0,0,0,765.59663,481.72025Z" style="fill:#c1c7cc"/><path d="M246.88587,1419.51351c.11084,1.79736.168,3.59473.31152,5.39331l.55518,7.46716V1403.5472l11.95361,196.01318H664.903L661.64661,1093.889s-5.4419-174.87793-4.3418-221.63086L435.79944,957.30428c-49.87109,38.91065-108.87109,127.844-140.32959,182.721-35.13965,62.69079-52.82617,210.26221-48.584,279.42724Z" style="fill:#2e3033"/><path d="M975.36475,957.31H687.1938l-.55481.30509-100.41578,56.28276-43.88336,408.742s413.12107,149.57574,444.59208-87.52826c27.66144-209.22533,59.18984-338.38992,59.19543-338.41768l-70.45752-39.38964-.30509.00559Z" style="fill:#e0e2e5"/><path d="M763.8926,933.86986l92.64986,67.1293-67.1293,86.5467,38.2795,85.99138-10.46649,426.11569-172.244.34712,35.13494-426.46281,52.14907-85.99138L683.999,1010.43155Z" style="fill:#101112;fill-rule:evenodd"/><path d="M297.81077,1599.56037l-11.441-185.29962c-4.60271-55.21944-10.22341-109.69247-10.01334-160.78712a481.505,481.505,0,0,1,4.54677-67.339,318.693,318.693,0,0,1,6.4858-32.5154L126.21032,1599.56038Z" style="fill:#101112"/><path d="M894.81924,1057.58541s-97.64236-73.78507-130.92935-123.16293c-2.21859-3.32924,72.67713-8.87707,129.8187-47.15656,63.24473-42.16406,78.71844-64.35538,78.71844-64.35538l59.422,80.99887s-98.75031,107.07205-137.03251,153.676" style="fill:#fff;fill-rule:evenodd"/><path d="M706.193,849.54175c-.55532,50.4858,57.6969,84.32811,57.6969,84.32811L663.47361,1057.03279s-23.302-69.34788-23.302-115.3938,66.01864-92.09453,66.01864-92.09453" style="fill:#fff;fill-rule:evenodd"/><path d="M1225.73477,1599.56048c-11.15224-50.60193-21.38726-100.55705-30.06108-148.15q-2.60055-14.84139-3.96041-29.86293c-9.985-103.7997,35.387-322.79812,153.7281-380.70089L1026.11322,856.81819c-11.009,38.65738-199.5354,438.77918-199.5354,438.77918l-102.57772,303.963,175.63246,0Z" style="fill:#43464a"/><path d="M688.03287,843.31771l2.51386-2.23756A9.568,9.568,0,0,0,688.03287,843.31771Z" style="fill:#595e62"/><path d="M688.03287,843.31771l-23.57828,21.00211c-6.78851-2.61951-228.57763,272.74864-228.57763,272.74864l109.49182-2.1898-145.54252,74.31146c-10.3229,70.71276,87.32105,252.59364,166.35592,390.37034l118.7876-.00009c9.64832-74.34048,19.79321-163.17334,25.34652-243.923C682.88054,1270.14176,666.60546,869.11458,688.03287,843.31771Z" style="fill:#595e62"/><path d="M958.13733,1136.42391l-12.63183-4.95068,12.63086,2.82129,160.60156,31.21118s-20.67188-264.7229-20.34571-267.033c0,0-79.17285-68.79956-125.96484-75.56226-.18457,53.10108-262.1084,532.72718-262.1084,532.72718l-45.84668,243.84167,235.16016.08105,198.75976-296.92285S998.65686,1151.24569,958.13733,1136.42391Z" style="fill:#656a6f"/><path d="M1154.52014,1599.56038h403.93067L1492.108,1215.67147c-37.16992-128.611-114.9082-187.57691-211.14843-181.27759-154.45117,24.03467-168.99707,235.27966-160.22949,328.50415C1127.89026,1439.118,1140.00061,1520.3304,1154.52014,1599.56038Z" style="fill:#2e3033"/><path d="M544.21073,385.40281c1.78553-10.12866,25.92209-112.461,28.30377-121.396h0c-12.48862,9.96071-98.81319,86.5749-14.604,275.07668C548.97409,488.45179,544.804,437.22392,544.21073,385.40281Z" style="fill:#e0e2e5"/><path d="M1014.1892,251.97364v-.0029c-84.63814,12.03609-112.5786,102.45863-112.5786,102.45863s3.57686,16.08431-8.34023,79.81962c-10.719,57.77966-27.99561,178.69994-54.2028,189.4204-26.213,10.72046-31.57247,15.48817-31.57247,15.48817L789.032,701.702a128.19323,128.19323,0,0,0-59.5681-34.54741c-32.16283-7.74264-76.8389-12.5089-116.7516,36.33729l-35.76864-80.7124s-53.56323,143.15481-49.16392,228.22014c4.1321,79.89826,66.81122,153.0433,196.7652,176.18186-28.67108-66.84371,164.05049-54.9546,206.36949-166.25463,15.77686-41.49354,11.62971-106.74284,4.53073-132.65032L888.50122,556.95625s26.20718-59.56664,57.18351-89.34924c17.87275-17.27516,37.19823-22.93852,53.83817-4.84874,8.34023,8.93493,11.06628,23.36827,11.06628,37.06655,1.78844-4.76336,4.79231-12.56243,6.58074-18.51953C1037.42145,418.76082,1058.26912,276.39673,1014.1892,251.97364Z" style="fill:#e0e2e5"/><ellipse cx="789.61282" cy="511.67763" rx="64.08912" ry="52.32988" style="fill:#c1c7cc;stroke:#8a9097;stroke-miterlimit:10;stroke-width:6.0634863597342px"/><ellipse cx="617.61524" cy="511.67763" rx="64.08912" ry="52.32988" style="fill:#c1c7cc;stroke:#8a9097;stroke-miterlimit:10;stroke-width:6.0634863597342px"/><path d="M726.61823,496.048c-17.0028-8.67132-33.01227-7.81208-48.2995,0" style="fill:none;stroke:#8a9097;stroke-miterlimit:10;stroke-width:6.71026491827807px"/><line x1="963.90045" y1="458.3544" x2="851.55379" y2="498.24109" style="fill:none;stroke:#8a9097;stroke-miterlimit:10;stroke-width:6.71026491827807px"/><path d="M946.77154,643.5233c17.78013-26.67021,40.89373-64.60059,53.93366-100.75412a174.50008,174.50008,0,0,0,9.48332-38.52363c0-2.3701.59325-4.74021.59325-6.52,0-13.63028-2.96336-26.077-11.26018-34.967-17.18689-18.96663-36.74677-11.85342-54.52691,5.33347-31.41042,29.63356-57.49027,88.30744-57.49027,88.30744l30.82006,108.45768C918.91772,667.22726,946.77154,643.5233,946.77154,643.5233Z" style="fill:#a4abb3"/></g></g></svg>