<?xml version="1.0" encoding="utf-8"?>
<!-- Generator: Adobe Illustrator 27.2.0, SVG Export Plug-In . SVG Version: 6.00 Build 0)  -->
<svg version="1.1" id="Icon_x5F_contour" xmlns="http://www.w3.org/2000/svg" xmlns:xlink="http://www.w3.org/1999/xlink" x="0px"
	 y="0px" viewBox="0 0 192 192" style="enable-background:new 0 0 192 192;" xml:space="preserve">
<path d="M94.72583,167.9986l-14.72461,0.00092l-0.00073-8.00171L80,151.99756l8.00049,0.00049l8.00049,0.00073l-0.00067,10.72339
	c1.70691-5.5163,4.45306-10.5777,8.00134-14.96588l0.00031-3.75677h-0.00061l-0.00037-24.00049H79.99976l0.0022-24.00049H48.00146
	v24.00049v8v16.00049v8v23.99756l24.00049,0.0022v0.00024l1.77765-0.00006L80.00195,176v-0.00085l13.99713-0.00061
	C93.99921,173.2674,94.25732,170.59692,94.72583,167.9986z M56.00146,127.99902h15.99805v15.99756h-0.00049v0.00073
	l-7.99927,0.00073l-7.99829,0.00049V127.99902z M56.00146,167.99805v-15.99927L64,151.99805l7.99976-0.00049l0.00073,8
	l0.00049,8.00146L56.00146,167.99805z M72,119.99902h-0.00049H56.00146v-16.00049h15.99951L72,119.99902z M79.99951,127.99902
	h16.00146l0.00049,15.99951l-8.00098-0.00049l-8.00098-0.00073V127.99902z M176,41.06836v108.93115h-0.30652
	c-2.20569-3.1037-4.79077-5.91766-7.69348-8.37073V46.93164L96,24.19482L24,46.93359l0.00146,121.06836L32,168.00146V52h128
	v49.63385c-2.29242-2.47455-4.99512-4.56146-8-6.15417V60H40v116.00049l-23.99854,0.00244L16,41.07031l80-25.26514L176,41.06836z
	 M149.7359,140.59387c6.16107-3.90295,10.26312-10.77618,10.26312-18.59338c0-12.13037-9.86914-21.99951-21.99951-21.99951
	S116,109.87012,116,122.00049c0,8.11041,4.41522,15.20483,10.96497,19.01965c-14.51013,5.00635-24.96594,18.79077-24.96594,34.98035
	h8c0-13.76727,9.64655-25.31647,22.53314-28.2644l1.19135,2.26031l-3.724,17.66504l8.72498,6.33881l8.65399-6.33881l-3.724-17.66504
	l1.44244-2.34595C158.16907,150.45947,168,162.10138,168,176.00049h8C176,159.33118,164.91785,145.20648,149.7359,140.59387z
	 M137.99951,108.00098c7.71924,0,13.99951,6.28027,13.99951,13.99951S145.71875,136,137.99951,136S124,129.71973,124,122.00049
	S130.28027,108.00098,137.99951,108.00098z"/>
<g>
</g>
<g>
</g>
<g>
</g>
<g>
</g>
<g>
</g>
<g>
</g>
<g>
</g>
<g>
</g>
<g>
</g>
<g>
</g>
<g>
</g>
<g>
</g>
<g>
</g>
<g>
</g>
<g>
</g>
</svg>
